<?xml version="1.0" encoding="utf-8"?>
<!-- Generator: Adobe Illustrator 25.2.3, SVG Export Plug-In . SVG Version: 6.00 Build 0)  -->
<svg version="1.1" id="레이어_1" xmlns="http://www.w3.org/2000/svg" xmlns:xlink="http://www.w3.org/1999/xlink" x="0px"
	 y="0px" viewBox="0 0 1405 512" style="enable-background:new 0 0 1405 512;" xml:space="preserve">
<style type="text/css">
	.st0{fill:none;stroke:#CDB7D8;stroke-width:4;stroke-miterlimit:10;}
	.st1{fill:none;stroke:#FFFFFF;stroke-width:4;stroke-miterlimit:10;}
	.st2{fill:none;stroke:#00979C;stroke-width:8;}
	.st3{fill:none;stroke:#00979C;stroke-width:5;}
	.st4{fill:#00979C;stroke:#00979C;}
	.st5{fill:none;}
	.st6{fill:#FFFFFF;}
	.st7{font-family:'AdobeMyungjoStd-Medium-KSCpc-EUC-H';}
	.st8{font-size:20px;}
	.st9{font-family:'JCfg';}
	.st10{font-size:22px;}
	.st11{font-size:12px;}
	.st12{fill-rule:evenodd;clip-rule:evenodd;fill:#00549D;}
	.st13{fill-rule:evenodd;clip-rule:evenodd;fill:#0086D4;}
	.st14{fill-rule:evenodd;clip-rule:evenodd;fill:#FFFFFF;}
	.st15{fill-rule:evenodd;clip-rule:evenodd;fill:#0075C0;}
	.st16{fill-rule:evenodd;clip-rule:evenodd;fill:#283593;}
	.st17{fill-rule:evenodd;clip-rule:evenodd;fill:#5C6BC0;}
	.st18{fill-rule:evenodd;clip-rule:evenodd;fill:#3949AB;}
	.st19{fill:none;stroke:#FFFFFF;stroke-width:3;stroke-miterlimit:10;}
	.st20{fill:none;stroke:#CDB7D8;stroke-width:3;stroke-miterlimit:10;}
	.st21{fill:none;stroke:#8B00FF;stroke-width:4;stroke-miterlimit:10;}
	.st22{fill:#0277BD;}
	.st23{fill:#FFC107;}
	.st24{fill:none;stroke:#8B00FF;stroke-width:3;stroke-miterlimit:10;}
	.st25{fill:#073042;}
	.st26{fill:#4285F4;}
	.st27{fill:#3870B2;}
	.st28{fill:#3DDC84;}
	.st29{fill:none;stroke:#632A7E;stroke-width:3;stroke-miterlimit:10;}
	.st30{stroke:#D3B7D8;stroke-width:2;stroke-miterlimit:10;}
	.st31{stroke:#B966FF;stroke-width:2;stroke-miterlimit:10;}
	.st32{fill:none;stroke:#7B75FF;stroke-width:2;stroke-miterlimit:10;}
	.st33{fill:none;stroke:#EDACB1;stroke-width:3;stroke-miterlimit:10;}
	.st34{fill:none;stroke:#7B75FF;stroke-width:3;stroke-miterlimit:10;}
	.st35{fill:none;stroke:#B966FF;stroke-width:3;stroke-miterlimit:10;}
	.st36{fill:#0091E2;}
	.st37{fill:#FF9900;}
	.st38{fill:#009900;}
	.st39{fill:#0074BD;}
	.st40{fill:#EA2D2E;}
	.st41{fill:#092E20;}
	.st42{stroke:#FFFFFF;stroke-width:4;stroke-miterlimit:10;}
	.st43{stroke:#632A7E;stroke-width:4;stroke-miterlimit:10;}
	.st44{stroke:#8B00FF;stroke-width:4;stroke-miterlimit:10;}
	.st45{stroke:#CDB7D8;stroke-width:4;stroke-miterlimit:10;}
	.st46{stroke:#B966FF;stroke-width:4;stroke-miterlimit:10;}
	.st47{stroke:#7B75FF;stroke-width:4;stroke-miterlimit:10;}
	.st48{stroke:#D3B7D8;stroke-width:4;stroke-miterlimit:10;}
</style>
<line class="st0" x1="644" y1="141" x2="1348" y2="141"/>
<path class="st1" d="M1348,300.84h-102.48H337.59c0,0-257.59,12.66-257.59-251.66L80.51,49"/>
<g>
	<path class="st2" d="M199.46,126.5c-12.54-1.05-23.08,14.56-17.94,26.63c5.01,13.09,23.87,16.64,32.84,6.16
		c8.69-8.96,12.04-22.75,22.69-29.82c10.82-7.77,28.23-0.43,30.34,13.37c2.06,13.22-11.49,26.07-23.74,22.19
		c-9.06-2.15-15.56-10.29-19.26-18.86c-4.55-8.18-10.5-16.92-19.78-19.14c-1.65-0.39-3.35-0.55-5.04-0.55L199.46,126.5z"/>
	<path class="st3" d="M192.08,145.22h15.83"/>
	<path class="st3" d="M240.62,145.22h13.19 M247.08,138.28v13.87"/>
	<path class="st4" d="M187.59,189.6l-0.84-3.19h-5.35l-0.87,3.19h-2.86l4.54-16.09h4.04l4.54,16.09H187.59z M184.11,176.42
		l-2.02,7.5h4.01L184.11,176.42z M200.26,189.6c0,0-1.54-3.83-2.41-5.69c-0.51-0.8-1.5-1.11-2.37-0.98
		c-0.08,2.18-0.06,6.67-0.06,6.67h-2.89v-16.09c0,0,4.35-0.13,6.52,0.17c4.58,0.54,4.88,7.54,0.28,8.28
		c0.86,0.36,1.38,1.2,1.75,2.05l2.31,5.02c0.16,0.34,0.16,0.61-0.31,0.61L200.26,189.6z M199.54,178.21
		c-0.01-2.48-2.37-2.21-4.13-2.22v4.55C197.48,180.62,199.5,180.4,199.54,178.21z M216.35,185.44c-1.4,3.4-4.46,4.19-7.36,4.13
		h-3.55v-16.09l5.39,0.03c6.67,0.23,6.91,7.79,5.5,11.98L216.35,185.44z M212.65,176.94c-1.35-1.21-2.82-0.97-4.33-0.97v11.05
		c1.32,0,2.76,0.11,3.88-0.75C214.59,184.69,214.29,178.7,212.65,176.94L212.65,176.94z M230.2,183.64
		c0.29,8.13-10.75,8.1-11.08,1.76c-0.2-1.94-0.04-3.88-0.09-5.82v-6.13h2.89l0.05,11.51c0.34,3.18,4.35,2.9,4.96,1.14
		c0.61-1.4,0.33-2.98,0.39-4.48v-8.17h2.89v10.19H230.2z M232.97,175.87v-2.48h9.69v2.48h-3.38v11.15h3.38v2.51h-9.69v-2.51h3.38
		v-11.15H232.97z M253.41,189.6l-4.96-11.71v11.71h-2.62v-16.09h3.55l4.93,11.59c0.01-0.83,0.01-11.59,0.01-11.59h2.62v16.09H253.41
		z M268.84,188.21c-3.21,2.9-8.8,2.26-9.91-3.45c-1.52-8.68,2.95-13.67,9.18-10.76c3.82,2.26,3.61,11.57,0.73,14.29V188.21z
		 M264.98,175.91c-2.73-0.08-3.13,2.86-3.23,4.27c-0.02,2.68-0.25,7.13,3.28,6.93c1.09,0,2.04-0.83,2.4-1.9
		C268.15,183.54,268.69,175.77,264.98,175.91L264.98,175.91z M265.68,124.19v0.32h0.68v1.89h0.35v-1.89h0.69v-0.32H265.68z
		 M267.63,124.19v2.21h0.32v-1.89l0.57,1.89h0.32l0.54-1.84v1.84h0.32v-2.21h-0.5l-0.51,1.76l-0.53-1.76H267.63z"/>
</g>
<rect x="21.63" y="140.25" class="st5" width="96.74" height="21.18"/>
<text transform="matrix(1 0 0 1 21.6343 157.8491)"><tspan x="0" y="0" class="st6 st7 st8"> </tspan><tspan x="6.66" y="0" class="st6 st9 st10">2017</tspan><tspan x="47.91" y="0" class="st7 st11"> </tspan></text>
<rect x="221.72" y="317.04" class="st5" width="96.74" height="21.18"/>
<text transform="matrix(1 0 0 1 221.7182 334.6432)"><tspan x="0" y="0" class="st6 st7 st8"> </tspan><tspan x="6.66" y="0" class="st6 st9 st10">2018</tspan><tspan x="47.91" y="0" class="st7 st11"> </tspan></text>
<rect x="472.87" y="324.58" class="st5" width="96.74" height="21.18"/>
<text transform="matrix(1 0 0 1 472.8669 341.7688)"><tspan x="0" y="0" class="st6 st9 st8"> </tspan><tspan x="10" y="0" class="st6 st9 st10">2019</tspan><tspan x="51.25" y="0" class="st7 st11"> </tspan></text>
<rect x="733.56" y="324.22" class="st5" width="96.74" height="21.18"/>
<text transform="matrix(1 0 0 1 733.5581 341.4135)"><tspan x="0" y="0" class="st6 st9 st8"> </tspan><tspan x="10" y="0" class="st6 st9 st10">2020</tspan><tspan x="51.25" y="0" class="st7 st11"> </tspan></text>
<rect x="986.15" y="327.34" class="st5" width="96.74" height="21.18"/>
<text transform="matrix(1 0 0 1 986.1496 344.5278)"><tspan x="0" y="0" class="st6 st9 st8"> </tspan><tspan x="10" y="0" class="st6 st9 st10">2021</tspan><tspan x="51.25" y="0" class="st7 st11"> </tspan></text>
<g>
	<path class="st12" d="M624.08,203.64c1.36-0.76,3.03-0.76,4.39,0c6.71,3.77,26.9,15.1,33.61,18.87c1.36,0.76,2.19,2.17,2.19,3.69
		c0,7.53,0,30.2,0,37.73c0,1.52-0.84,2.93-2.19,3.69c-6.71,3.77-26.9,15.1-33.61,18.87c-1.36,0.76-3.03,0.76-4.39,0
		c-6.71-3.77-26.9-15.1-33.61-18.87c-1.36-0.76-2.19-2.17-2.19-3.69c0-7.53,0-30.2,0-37.73c0-1.52,0.84-2.93,2.19-3.69
		C597.17,218.75,617.37,207.41,624.08,203.64z"/>
	<path class="st13" d="M588.88,265.88c-0.53-0.71-0.61-1.39-0.61-2.3c0-7.49,0-30.03,0-37.52c0-1.52,0.83-2.92,2.19-3.67
		c6.69-3.74,26.81-15.01,33.5-18.76c1.35-0.76,3.19-0.74,4.54,0.02c6.69,3.74,26.74,14.92,33.43,18.66c0.54,0.3,0.95,0.67,1.32,1.15
		L588.88,265.88z"/>
	<path class="st14" d="M626.27,217.07c15.45,0,28,12.55,28,28s-12.55,28-28,28c-15.45,0-28-12.55-28-28S610.82,217.07,626.27,217.07
		z M626.27,231.07c7.73,0,14,6.27,14,14c0,7.73-6.27,14-14,14c-7.73,0-14-6.27-14-14C612.27,237.34,618.54,231.07,626.27,231.07z"/>
	<path class="st15" d="M663.24,223.48c1.03,0.97,1.01,2.42,1.01,3.57c0,7.59-0.06,29.18,0.02,36.77c0.01,0.79-0.25,1.63-0.65,2.25
		l-38.17-21L663.24,223.48z"/>
	<path class="st14" d="M640.27,239.07h4v12h-4V239.07z M654.27,239.07h4v12h-4V239.07z"/>
	<path class="st14" d="M636.27,243.07h12v4h-12V243.07z M650.27,243.07h12v4h-12V243.07z"/>
</g>
<g>
	<path class="st16" d="M470.81,185.73c1.36-0.76,3.03-0.76,4.39,0c6.71,3.77,26.9,15.1,33.61,18.87c1.36,0.76,2.19,2.17,2.19,3.69
		c0,7.53,0,30.2,0,37.73c0,1.52-0.84,2.93-2.19,3.69c-6.71,3.77-26.9,15.1-33.61,18.87c-1.36,0.76-3.03,0.76-4.39,0
		c-6.71-3.77-26.9-15.1-33.61-18.87c-1.36-0.76-2.19-2.17-2.19-3.69c0-7.53,0-30.2,0-37.73c0-1.52,0.84-2.93,2.19-3.69
		C443.9,200.83,464.1,189.49,470.81,185.73z"/>
	<path class="st17" d="M435.61,247.96c-0.53-0.71-0.61-1.39-0.61-2.3c0-7.49,0-30.03,0-37.52c0-1.52,0.83-2.92,2.19-3.67
		c6.69-3.74,26.81-15.01,33.5-18.76c1.35-0.76,3.19-0.74,4.54,0.02c6.69,3.74,26.74,14.92,33.43,18.66c0.54,0.3,0.95,0.67,1.32,1.15
		L435.61,247.96z"/>
	<path class="st14" d="M473,199.16c15.45,0,28,12.55,28,28s-12.55,28-28,28s-28-12.55-28-28S457.55,199.16,473,199.16z M473,213.16
		c7.73,0,14,6.27,14,14c0,7.73-6.27,14-14,14s-14-6.27-14-14C459,219.43,465.27,213.16,473,213.16z"/>
	<path class="st18" d="M509.97,205.57c1.03,0.97,1.01,2.42,1.01,3.57c0,7.59-0.06,29.18,0.02,36.77c0.01,0.79-0.25,1.63-0.65,2.25
		l-38.17-21L509.97,205.57z"/>
</g>
<circle class="st19" cx="107" cy="179" r="11.5"/>
<circle class="st19" cx="352" cy="301" r="11.5"/>
<circle class="st19" cx="505" cy="301" r="11.5"/>
<circle class="st19" cx="1011" cy="301" r="11.5"/>
<line class="st19" x1="107" y1="179" x2="179" y2="97"/>
<circle class="st19" cx="172" cy="105" r="11.5"/>
<line class="st19" x1="350" y1="301" x2="415" y2="227"/>
<circle class="st19" cx="408" cy="235" r="11.5"/>
<line class="st19" x1="503" y1="301" x2="653" y2="131"/>
<circle class="st19" cx="554" cy="243" r="11.5"/>
<circle class="st20" cx="645" cy="140" r="11.5"/>
<circle class="st19" cx="676" cy="301" r="11.5"/>
<line class="st21" x1="752.04" y1="212.1" x2="1348" y2="212.1"/>
<path class="st22" d="M809.34,181.02c-3.11,0.01-5.27,0.28-7.87,0.73c-7.7,1.34-9.1,4.15-9.1,9.34v7.93h18v4h-18.68h-8.7
	c-5.27,0-9.89,2.48-11.35,8.44c-1.65,6.83-1.73,11.11,0,18.25c1.31,5.32,4.2,9.31,9.47,9.31h7.26v-10.21
	c0-5.93,5.37-11.79,11.53-11.79h14.47c5.05,0,10-3.72,10-8.75v-17.17c0-4.88-3.52-8.53-8.44-9.34
	C816.06,181.74,812.43,181.01,809.34,181.02z M799.37,189.02c1.64,0,3,1.35,3,3c0,1.67-1.36,3-3,3c-1.67,0-3-1.33-3-3
	C796.37,190.38,797.7,189.02,799.37,189.02z"/>
<path class="st23" d="M807.4,257.02c3.11-0.01,5.27-0.28,7.87-0.73c7.7-1.34,9.1-4.15,9.1-9.34v-7.93h-18v-4h18.69h8.7
	c5.27,0,9.89-2.48,11.35-8.44c1.65-6.83,1.73-11.11,0-18.25c-1.31-5.32-4.2-9.31-9.47-9.31h-7.26v10.21
	c0,5.93-5.37,11.79-11.53,11.79h-14.47c-5.05,0-10,3.72-10,8.75v17.17c0,4.88,3.52,8.53,8.44,9.34
	C800.69,256.3,804.32,257.03,807.4,257.02z M817.37,249.02c-1.64,0-3-1.35-3-3c0-1.67,1.36-3,3-3c1.67,0,3,1.33,3,3
	C820.37,247.66,819.05,249.02,817.37,249.02z"/>
<line class="st19" x1="674.04" y1="301.1" x2="760" y2="203.2"/>
<circle class="st24" cx="752.04" cy="212.1" r="11.5"/>
<circle class="st19" cx="858.46" cy="302.46" r="11.5"/>
<line class="st19" x1="858.67" y1="302.05" x2="919" y2="365"/>
<circle class="st19" cx="910" cy="356" r="11.5"/>
<g>
	<path class="st25" d="M960.9,335.59h-20.21c-4.1,0.01-7.42,3.34-7.42,7.43c-0.12,3.97,3.01,7.29,6.98,7.41h0.22h20.64L960.9,335.59
		z"/>
	<path class="st26" d="M1006.93,401.71h-66.26c-4.08-0.02-7.38-3.33-7.4-7.42v-51.31c-0.02,4.11,3.29,7.46,7.4,7.48c0,0,0,0,0,0
		c0.17,0,0.33,0,0.49-0.01h54.96c0,0,10.8-0.94,10.8,7.21V401.71z"/>
	<path d="M971.94,366.02c-2.27,0.04-4.07,1.91-4.03,4.18s1.91,4.07,4.18,4.03c2.27-0.04,4.07-1.91,4.03-4.18
		c-0.01-0.49-0.11-0.98-0.29-1.43C975.2,367.03,973.65,366,971.94,366.02z"/>
	<path class="st27" d="M976.02,375.43c2.95-2.21,3.55-6.39,1.34-9.33c-1.22-1.63-3.12-2.61-5.15-2.67h0.22
		c0.39-0.04,0.78-0.04,1.17,0v-4.13c0.02-0.48-0.22-0.92-0.62-1.17c-0.41-0.24-0.91-0.24-1.32,0c-0.41,0.25-0.64,0.7-0.62,1.17v4.2
		c-3.65,0.58-6.14,4.01-5.56,7.66c0.28,1.74,1.22,3.29,2.64,4.34l-12.22,26.11h7.97l5.63-12c0.49-1.01,1.52-1.66,2.64-1.66
		c1.12,0,2.14,0.64,2.62,1.66l5.81,12h8.07L976.02,375.43z M971.94,374.26c-2.29,0.01-4.15-1.84-4.16-4.13
		c-0.01-2.29,1.84-4.15,4.13-4.16c2.29-0.01,4.15,1.84,4.16,4.13c0,0.01,0,0.02,0,0.03C976.07,372.41,974.22,374.26,971.94,374.26
		L971.94,374.26z"/>
	<path class="st6" d="M956.53,339.24h28.34v5.21h-28.34V339.24z"/>
	<path class="st25" d="M969.73,366.02c2.27,0.02,4.09,1.87,4.07,4.13c-0.02,2.27-1.87,4.09-4.13,4.07s-4.09-1.87-4.07-4.13
		c0.01-1.08,0.44-2.11,1.2-2.87C967.59,366.46,968.64,366.03,969.73,366.02z M971.36,363.62v-4.32c0.02-0.48-0.22-0.92-0.62-1.17
		c-0.41-0.24-0.91-0.24-1.32,0c-0.4,0.25-0.64,0.7-0.62,1.17v4.2c-3.65,0.58-6.14,4.01-5.56,7.66c0.28,1.74,1.22,3.29,2.64,4.34
		l-15.33,33.01c-0.58,1.18-0.48,2.59,0.26,3.67c0.76,1.08,2.03,1.67,3.34,1.56c1.31-0.13,2.45-0.95,2.98-2.16l10.22-21.96
		c0.49-1.01,1.52-1.65,2.64-1.66c1.12,0,2.14,0.64,2.62,1.66l10.49,21.84c0.87,1.8,3.04,2.55,4.85,1.68
		c1.8-0.87,2.55-3.04,1.68-4.85l0,0l-15.79-32.86c2.91-2.33,3.39-6.58,1.07-9.49c-0.89-1.11-2.1-1.91-3.47-2.29"/>
	<path class="st28" d="M980.77,343.82c-1.06,0.02-1.94-0.82-1.96-1.88c-0.01-0.53,0.2-1.04,0.57-1.41c0.76-0.76,1.99-0.75,2.75,0.01
		c0.36,0.36,0.56,0.85,0.56,1.36C982.69,342.97,981.83,343.82,980.77,343.82C980.77,343.82,980.77,343.82,980.77,343.82
		L980.77,343.82 M959.44,343.82c-1.06,0.01-1.93-0.84-1.94-1.9c-0.01-0.52,0.2-1.02,0.57-1.39c0.68-0.83,1.91-0.95,2.74-0.27
		c0.83,0.68,0.95,1.91,0.27,2.74c-0.08,0.1-0.17,0.19-0.27,0.27C960.44,343.63,959.95,343.83,959.44,343.82 M981.47,332.19
		l3.84-6.67c0.17-0.42-0.04-0.89-0.45-1.06c-0.33-0.13-0.71-0.03-0.94,0.24l-3.89,6.76c-6.3-2.83-13.52-2.83-19.82,0l-3.92-6.77
		c-0.14-0.25-0.41-0.4-0.7-0.41c-0.29,0.01-0.55,0.17-0.7,0.41c-0.15,0.25-0.15,0.56,0,0.82l3.86,6.67
		c-6.76,3.71-11.2,10.58-11.79,18.27h46.32C992.68,342.76,988.24,335.89,981.47,332.19"/>
	<path class="st25" d="M1000.29,364.68h-3.05c-0.21,0-0.39,0.17-0.39,0.39l0,0l0,0v48.12c0,0.2,0.16,0.37,0.36,0.38h3.14
		c3.67-0.01,6.65-2.99,6.65-6.67v-48.89c0,3.68-2.98,6.67-6.67,6.67l0,0L1000.29,364.68z"/>
</g>
<line class="st29" x1="1077" y1="371" x2="1348" y2="371"/>
<line class="st19" x1="1010.42" y1="301.35" x2="1085.8" y2="380.25"/>
<line class="st30" x1="1070.12" y1="233.85" x2="1348" y2="233.85"/>
<line class="st31" x1="1200" y1="88" x2="1346.31" y2="88"/>
<circle class="st29" cx="1077" cy="371" r="11.5"/>
<line class="st32" x1="1138.12" y1="156.85" x2="1348" y2="156.85"/>
<line class="st19" x1="1010.12" y1="300.85" x2="1207" y2="80"/>
<circle class="st33" cx="1070.12" cy="233.85" r="11.5"/>
<circle class="st34" cx="1138.12" cy="156.85" r="11.5"/>
<circle class="st35" cx="1200" cy="88" r="11.5"/>
<g>
	<g>
		<path class="st36" d="M1121.54,270.48c-0.76-0.02-1.39,0.57-1.41,1.31c0,0.02,0,0.07,0,0.1v6.79c-3.27-2.63-8.08-2.1-10.7,1.17
			c-1.08,1.36-1.67,3.03-1.67,4.78c-0.07,4.2,3.27,7.67,7.48,7.74c4.2,0.07,7.67-3.27,7.74-7.48c0-0.1,0-0.17,0-0.26v-12.73
			c0-0.38-0.14-0.74-0.41-1C1122.28,270.63,1121.92,270.48,1121.54,270.48 M1119.75,286.47c-0.48,1.15-1.39,2.05-2.53,2.56
			c-1.19,0.5-2.53,0.5-3.73,0c-1.15-0.48-2.03-1.41-2.51-2.53c-0.5-1.17-0.5-2.51,0-3.7c0.48-1.15,1.39-2.05,2.51-2.53
			c1.19-0.5,2.53-0.5,3.73,0c1.15,0.5,2.05,1.41,2.53,2.56C1120.25,283.96,1120.25,285.29,1119.75,286.47"/>
		<path class="st36" d="M1137.43,279.25c-2.96-2.96-7.79-2.96-10.75,0c-1.43,1.43-2.22,3.37-2.22,5.38
			c-0.07,4.2,3.27,7.67,7.48,7.74c4.2,0.07,7.67-3.27,7.74-7.48c0-0.1,0-0.17,0-0.26c0-1-0.19-1.98-0.57-2.91
			C1138.72,280.78,1138.15,279.94,1137.43,279.25 M1136.45,286.44c-0.24,0.57-0.6,1.08-1.03,1.51c-0.43,0.43-0.96,0.79-1.51,1.03
			c-1.19,0.5-2.53,0.5-3.73,0c-1.15-0.48-2.05-1.41-2.53-2.53c-0.5-1.17-0.5-2.51,0-3.7c0.48-1.15,1.39-2.03,2.53-2.53
			c1.19-0.5,2.53-0.5,3.73,0c0.57,0.24,1.08,0.6,1.51,1.03c0.43,0.43,0.79,0.96,1.03,1.51
			C1136.95,283.96,1136.95,285.29,1136.45,286.44"/>
		<path class="st36" d="M1168.89,278.41c0-0.19-0.05-0.38-0.12-0.55s-0.19-0.31-0.31-0.45c-0.12-0.12-0.29-0.24-0.45-0.31
			c-0.17-0.07-0.36-0.12-0.55-0.12c-0.26,0-0.53,0.07-0.76,0.22l-8.12,5.28v-10.56c0-0.38-0.14-0.74-0.41-1s-0.62-0.43-1-0.43
			c-0.79,0-1.41,0.62-1.43,1.41c0,0,0,0,0,0.02v18.87c0,0.38,0.14,0.74,0.41,1c0.26,0.29,0.62,0.43,1,0.43c0.38,0,0.74-0.14,1-0.43
			c0.26-0.26,0.43-0.62,0.41-1v-4.9l1.65-1.08l6.28,7.05c0.26,0.24,0.6,0.38,0.96,0.36c0.19,0,0.38-0.02,0.55-0.12
			c0.17-0.07,0.31-0.17,0.45-0.31c0.12-0.14,0.24-0.29,0.31-0.45c0.07-0.17,0.12-0.36,0.12-0.55c0-0.36-0.14-0.72-0.38-0.98
			l-5.83-6.57l5.69-3.7C1168.73,279.3,1168.92,278.87,1168.89,278.41"/>
		<path class="st36" d="M1145.31,281.23c0.43-0.43,0.96-0.79,1.53-1.03c0.6-0.24,1.22-0.38,1.86-0.38c0.57,0,1.12,0.1,1.65,0.29
			c0.53,0.22,1.03,0.5,1.46,0.88c0.26,0.21,0.6,0.31,0.93,0.31c0.38,0.02,0.76-0.12,1.03-0.41c0.26-0.26,0.41-0.65,0.41-1.03
			c0-0.41-0.17-0.81-0.5-1.08c-1.36-1.22-3.13-1.89-4.97-1.84c-4.2,0-7.62,3.42-7.62,7.62s3.39,7.6,7.57,7.62
			c1.84,0,3.61-0.65,4.99-1.84c0.29-0.26,0.45-0.65,0.45-1.05c0.02-0.76-0.57-1.39-1.31-1.41c-0.02,0-0.07,0-0.1,0
			c-0.33,0-0.65,0.1-0.91,0.29c-0.43,0.38-0.91,0.67-1.43,0.88c-0.53,0.19-1.1,0.29-1.65,0.29c-0.65,0-1.27-0.12-1.86-0.38
			c-0.57-0.24-1.08-0.6-1.53-1.03c-1.86-1.86-1.86-4.87-0.02-6.74C1145.31,281.26,1145.31,281.26,1145.31,281.23"/>
		<path class="st36" d="M1197.11,277.96c-0.29-0.26-0.6-0.45-0.96-0.57c-0.41-0.14-0.84-0.24-1.27-0.29
			c-0.43-0.05-0.86-0.07-1.29-0.07c-0.86,0-1.74,0.14-2.56,0.45c-0.81,0.29-1.55,0.72-2.22,1.24v-0.29
			c-0.02-0.79-0.69-1.39-1.48-1.36c-0.74,0.02-1.34,0.62-1.36,1.36v12.4c0.02,0.79,0.69,1.39,1.48,1.36
			c0.74-0.02,1.34-0.62,1.36-1.36v-6.19c0-0.65,0.12-1.27,0.38-1.86c0.24-0.57,0.57-1.08,1.03-1.51c0.43-0.43,0.96-0.79,1.51-1.03
			c0.6-0.24,1.22-0.38,1.86-0.38c0.65,0,1.27,0.12,1.86,0.33c0.19,0.1,0.38,0.14,0.6,0.14c0.19,0,0.38-0.02,0.55-0.12
			c0.17-0.07,0.31-0.17,0.45-0.31c0.12-0.12,0.24-0.29,0.31-0.45c0.07-0.17,0.12-0.36,0.12-0.55
			C1197.52,278.56,1197.37,278.22,1197.11,277.96"/>
		<path class="st36" d="M1183.92,281.71c-1.22-2.82-3.99-4.66-7.05-4.68c-4.2,0-7.6,3.39-7.62,7.6l0,0c0,4.2,3.42,7.62,7.62,7.62
			c1.82,0,3.58-0.65,4.97-1.84c0.02-0.02,0.05-0.05,0.05-0.05c0.12-0.1,0.24-0.22,0.31-0.36c0.45-0.67,0.29-1.55-0.36-2.01
			c-0.55-0.36-1.27-0.29-1.74,0.17c-0.05,0.05-0.19,0.17-0.19,0.19l-0.02,0.02c-0.41,0.33-0.86,0.62-1.36,0.79
			c-0.53,0.19-1.08,0.29-1.65,0.26c-0.53,0-1.03-0.07-1.53-0.24c-0.48-0.17-0.93-0.38-1.34-0.69c-0.41-0.29-0.76-0.65-1.05-1.05
			c-0.31-0.41-0.53-0.88-0.67-1.36h10.75c0.38,0,0.74-0.14,1-0.41c0.29-0.26,0.43-0.62,0.41-1
			C1184.47,283.65,1184.28,282.64,1183.92,281.71 M1172.29,283.24c0.14-0.5,0.36-0.96,0.67-1.36c0.29-0.41,0.65-0.76,1.05-1.05
			c0.41-0.29,0.86-0.53,1.34-0.69c0.48-0.17,1-0.24,1.51-0.24s1.03,0.07,1.51,0.24c0.96,0.31,1.79,0.93,2.39,1.74
			c0.31,0.41,0.53,0.88,0.69,1.36H1172.29z"/>
		<path class="st36" d="M1192.26,290.17c-0.55,0-0.98,0.45-0.98,1s0.45,0.98,1,0.98c0.55,0,0.98-0.45,0.98-0.98
			C1193.26,290.6,1192.81,290.17,1192.26,290.17L1192.26,290.17 M1192.26,291.94c-0.43,0.02-0.79-0.31-0.81-0.74
			s0.31-0.79,0.74-0.81s0.79,0.31,0.81,0.74c0,0.02,0,0.02,0,0.05c0.02,0.41-0.31,0.76-0.72,0.76
			C1192.28,291.94,1192.28,291.94,1192.26,291.94"/>
		<path class="st36" d="M1192.5,291.17L1192.5,291.17c0.12-0.02,0.19-0.12,0.19-0.24c0-0.1-0.02-0.17-0.1-0.22
			c-0.1-0.05-0.22-0.07-0.33-0.07c-0.12,0-0.26,0-0.38,0.02v0.98h0.21v-0.38h0.1c0.12,0,0.19,0.05,0.22,0.14
			c0.02,0.07,0.05,0.17,0.07,0.24h0.24c-0.05-0.07-0.07-0.17-0.07-0.24C1192.67,291.32,1192.59,291.22,1192.5,291.17 M1192.21,291.1
			h-0.12v-0.29c0.05,0,0.1,0,0.12,0c0.14,0,0.22,0.07,0.22,0.14C1192.45,291.05,1192.33,291.12,1192.21,291.1"/>
	</g>
	<g>
		<path class="st36" d="M1200.08,223.37c-0.26-0.22-2.64-2.02-7.73-2.02c-1.32,0-2.68,0.13-4,0.35c-0.97-6.72-6.54-9.97-6.76-10.15
			l-1.36-0.79l-0.88,1.27c-1.1,1.71-1.93,3.65-2.42,5.62c-0.92,3.82-0.35,7.42,1.58,10.5c-2.33,1.32-6.1,1.62-6.9,1.67h-62.36
			c-1.62,0-2.94,1.32-2.94,2.94c-0.09,5.45,0.83,10.89,2.72,16.03c2.15,5.62,5.36,9.79,9.49,12.34c4.66,2.85,12.25,4.48,20.82,4.48
			c3.86,0,7.73-0.35,11.55-1.05c5.31-0.97,10.41-2.81,15.11-5.49c3.86-2.24,7.33-5.09,10.28-8.43c4.96-5.58,7.91-11.81,10.06-17.35
			c0.31,0,0.57,0,0.88,0c5.4,0,8.74-2.15,10.58-4c1.23-1.14,2.15-2.55,2.81-4.13l0.4-1.14L1200.08,223.37z"/>
		<path class="st36" d="M1115.05,228.03h8.34c0.4,0,0.75-0.31,0.75-0.75l0,0v-7.47c0-0.4-0.31-0.75-0.75-0.75l0,0h-8.34
			c-0.4,0-0.75,0.31-0.75,0.75l0,0v7.47C1114.35,227.72,1114.66,228.03,1115.05,228.03L1115.05,228.03"/>
		<path class="st36" d="M1126.56,228.03h8.34c0.4,0,0.75-0.31,0.75-0.75l0,0v-7.47c0-0.4-0.31-0.75-0.75-0.75l0,0h-8.34
			c-0.4,0-0.75,0.31-0.75,0.75v7.47C1125.86,227.72,1126.16,228.03,1126.56,228.03"/>
		<path class="st36" d="M1138.28,228.03h8.34c0.4,0,0.75-0.31,0.75-0.75l0,0v-7.47c0-0.4-0.31-0.75-0.75-0.75l0,0h-8.34
			c-0.4,0-0.75,0.31-0.75,0.75l0,0v7.47C1137.54,227.72,1137.85,228.03,1138.28,228.03L1138.28,228.03"/>
		<path class="st36" d="M1149.83,228.03h8.34c0.4,0,0.75-0.31,0.75-0.75v-7.47c0-0.4-0.31-0.75-0.75-0.75l0,0h-8.34
			c-0.4,0-0.75,0.31-0.75,0.75l0,0v7.47C1149.09,227.72,1149.44,228.03,1149.83,228.03L1149.83,228.03"/>
		<path class="st36" d="M1126.56,217.36h8.34c0.4,0,0.75-0.35,0.75-0.75v-7.47c0-0.4-0.31-0.75-0.75-0.75l0,0h-8.34
			c-0.4,0-0.75,0.31-0.75,0.75v7.47C1125.86,217.01,1126.16,217.36,1126.56,217.36"/>
		<path class="st36" d="M1138.28,217.36h8.34c0.4,0,0.75-0.35,0.75-0.75v-7.47c0-0.4-0.31-0.75-0.75-0.75l0,0h-8.34
			c-0.4,0-0.75,0.31-0.75,0.75l0,0v7.47C1137.54,217.01,1137.85,217.36,1138.28,217.36"/>
		<path class="st36" d="M1149.83,217.36h8.34c0.4,0,0.75-0.35,0.75-0.75v-7.47c0-0.4-0.35-0.75-0.75-0.75h-8.34
			c-0.4,0-0.75,0.31-0.75,0.75l0,0v7.47C1149.09,217.01,1149.44,217.36,1149.83,217.36"/>
		<path class="st36" d="M1149.83,206.64h8.34c0.4,0,0.75-0.31,0.75-0.75v-7.47c0-0.4-0.35-0.75-0.75-0.75h-8.34
			c-0.4,0-0.75,0.31-0.75,0.75l0,0v7.47C1149.09,206.29,1149.44,206.64,1149.83,206.64"/>
		<path class="st36" d="M1161.47,228.03h8.34c0.4,0,0.75-0.31,0.75-0.75v-7.47c0-0.4-0.31-0.75-0.75-0.75l0,0h-8.34
			c-0.4,0-0.75,0.31-0.75,0.75l0,0v7.47C1160.77,227.72,1161.08,228.03,1161.47,228.03"/>
	</g>
</g>
<path class="st6" d="M1201.4,155.31c0,1.19,0.13,2.16,0.35,2.87c0.26,0.71,0.57,1.48,1.02,2.32c0.16,0.26,0.22,0.52,0.22,0.74
	c0,0.32-0.19,0.64-0.61,0.97l-2.01,1.35c-0.29,0.19-0.57,0.29-0.83,0.29c-0.32,0-0.64-0.16-0.96-0.45c-0.45-0.48-0.83-1-1.15-1.52
	c-0.32-0.55-0.64-1.16-0.99-1.9c-2.49,2.97-5.62,4.45-9.39,4.45c-2.68,0-4.82-0.77-6.39-2.32c-1.56-1.55-2.36-3.61-2.36-6.19
	c0-2.74,0.96-4.97,2.91-6.64c1.95-1.68,4.53-2.52,7.82-2.52c1.09,0,2.2,0.1,3.38,0.26c1.18,0.16,2.39,0.42,3.67,0.71v-2.35
	c0-2.45-0.51-4.16-1.5-5.16c-1.02-1-2.75-1.48-5.2-1.48c-1.12,0-2.27,0.13-3.45,0.42c-1.18,0.29-2.33,0.64-3.45,1.1
	c-0.51,0.23-0.89,0.35-1.12,0.42c-0.22,0.06-0.38,0.1-0.51,0.1c-0.45,0-0.67-0.32-0.67-1v-1.58c0-0.52,0.06-0.9,0.22-1.13
	s0.45-0.45,0.89-0.68c1.12-0.58,2.46-1.06,4.02-1.45c1.56-0.42,3.22-0.61,4.98-0.61c3.8,0,6.58,0.87,8.37,2.61
	c1.76,1.74,2.65,4.39,2.65,7.93v10.45L1201.4,155.31L1201.4,155.31z M1188.43,160.21c1.05,0,2.14-0.19,3.29-0.58
	c1.15-0.39,2.17-1.1,3.03-2.06c0.51-0.61,0.89-1.29,1.09-2.06c0.19-0.77,0.32-1.71,0.32-2.81v-1.35c-0.93-0.23-1.92-0.42-2.94-0.55
	c-1.02-0.13-2.01-0.19-3-0.19c-2.14,0-3.7,0.42-4.76,1.29c-1.05,0.87-1.56,2.1-1.56,3.71c0,1.52,0.38,2.64,1.18,3.42
	C1185.85,159.83,1186.97,160.21,1188.43,160.21z M1214.07,163.7c-0.57,0-0.96-0.1-1.21-0.32c-0.26-0.19-0.48-0.64-0.67-1.26
	l-7.5-24.93c-0.19-0.64-0.29-1.06-0.29-1.29c0-0.52,0.26-0.81,0.77-0.81h3.13c0.61,0,1.02,0.1,1.25,0.32
	c0.26,0.19,0.45,0.64,0.64,1.26l5.36,21.35l4.98-21.35c0.16-0.64,0.35-1.06,0.61-1.26c0.26-0.19,0.7-0.32,1.28-0.32h2.55
	c0.61,0,1.02,0.1,1.28,0.32c0.26,0.19,0.48,0.64,0.61,1.26l5.04,21.61l5.52-21.61c0.19-0.64,0.42-1.06,0.64-1.26
	c0.26-0.19,0.67-0.32,1.25-0.32h2.97c0.51,0,0.8,0.26,0.8,0.81c0,0.16-0.03,0.32-0.06,0.52c-0.03,0.19-0.1,0.45-0.22,0.81
	l-7.69,24.93c-0.19,0.64-0.42,1.06-0.67,1.26c-0.25,0.19-0.67,0.32-1.21,0.32h-2.75c-0.61,0-1.02-0.1-1.28-0.32
	c-0.26-0.23-0.48-0.64-0.61-1.29l-4.95-20.8l-4.92,20.77c-0.16,0.64-0.35,1.06-0.61,1.29c-0.26,0.23-0.7,0.32-1.28,0.32H1214.07z
	 M1255.1,164.57c-1.66,0-3.32-0.19-4.92-0.58c-1.6-0.39-2.84-0.81-3.67-1.29c-0.51-0.29-0.86-0.61-0.99-0.9
	c-0.13-0.29-0.19-0.61-0.19-0.9v-1.64c0-0.68,0.26-1,0.73-1c0.19,0,0.38,0.03,0.57,0.1c0.19,0.06,0.48,0.19,0.8,0.32
	c1.09,0.48,2.27,0.87,3.51,1.13c1.28,0.26,2.52,0.39,3.8,0.39c2.01,0,3.58-0.35,4.66-1.06c1.09-0.71,1.66-1.74,1.66-3.06
	c0-0.9-0.29-1.64-0.86-2.26c-0.57-0.61-1.66-1.16-3.22-1.68l-4.63-1.45c-2.33-0.74-4.05-1.84-5.11-3.29c-1.05-1.42-1.6-3-1.6-4.68
	c0-1.35,0.29-2.55,0.86-3.58s1.34-1.93,2.3-2.64c0.96-0.74,2.04-1.29,3.32-1.68c1.28-0.38,2.62-0.55,4.02-0.55
	c0.7,0,1.44,0.03,2.14,0.13c0.73,0.1,1.4,0.23,2.08,0.35c0.64,0.16,1.25,0.32,1.82,0.52s1.02,0.39,1.34,0.58
	c0.45,0.26,0.77,0.52,0.96,0.81c0.19,0.26,0.29,0.61,0.29,1.06v1.52c0,0.68-0.26,1.03-0.73,1.03c-0.26,0-0.67-0.13-1.21-0.39
	c-1.82-0.84-3.86-1.26-6.13-1.26c-1.82,0-3.26,0.29-4.25,0.9s-1.5,1.55-1.5,2.87c0,0.9,0.32,1.68,0.96,2.29
	c0.64,0.61,1.82,1.23,3.51,1.77l4.53,1.45c2.3,0.74,3.96,1.77,4.95,3.1c0.99,1.32,1.47,2.84,1.47,4.51c0,1.39-0.29,2.64-0.83,3.74
	c-0.57,1.1-1.34,2.06-2.33,2.84c-0.99,0.81-2.17,1.39-3.54,1.81C1258.23,164.34,1256.73,164.57,1255.1,164.57z"/>
<path class="st37" d="M1261.14,180.24c-10.5,7.84-25.77,12-38.89,12c-18.39,0-34.96-6.87-47.48-18.28c-0.99-0.9-0.1-2.13,1.09-1.42
	c13.54,7.93,30.24,12.74,47.51,12.74c11.65,0,24.46-2.45,36.24-7.48C1261.36,176.98,1262.86,178.95,1261.14,180.24z M1265.51,175.21
	c-1.34-1.74-8.88-0.84-12.29-0.42c-1.02,0.13-1.18-0.77-0.26-1.45c6-4.26,15.87-3.03,17.02-1.61c1.15,1.45-0.32,11.42-5.94,16.19
	c-0.86,0.74-1.69,0.35-1.31-0.61C1264.01,184.11,1266.85,176.92,1265.51,175.21z"/>
<g>
	<path class="st6" d="M1281.77,113.99c-1.25,0-2.39-0.48-3.24-1.27c-0.88,0.78-2,1.21-3.14,1.21h-0.06
		c-1.23-0.02-2.45-0.55-3.33-1.47c-0.89-0.9-1.39-2.13-1.38-3.35v-0.5l-1.3,2.62l-0.55,1.11c-0.46,0.95-1.43,1.55-2.5,1.55h-11.08
		c-1,0-1.93-0.55-2.42-1.41l-0.56-1.01l-1.5-2.63v0.33c0,2.62-2.14,4.76-4.76,4.76c-1.28,0-2.47-0.5-3.37-1.4l-7.04-7.04v3.68
		c0,2.62-2.14,4.76-4.76,4.76c-2.62,0-4.77-2.13-4.77-4.76V93.97c0-1.93,1.16-3.66,2.94-4.41c0.58-0.24,1.19-0.36,1.82-0.36
		c1.28,0,2.47,0.5,3.37,1.4l7.05,7.05v-3.68c0-2.62,2.14-4.76,4.76-4.76c2.62,0,4.76,2.14,4.76,4.76v0.41l1.48-2.68l0.54-1
		c0.48-0.89,1.42-1.47,2.45-1.47h11.54c1.07,0,2.03,0.61,2.49,1.55l0.55,1.12c0.03,0.04,0.04,0.1,0.07,0.14l0.8,1.93
		c0-1.21,0.5-2.41,1.38-3.31c0.89-0.91,2.11-1.44,3.33-1.47h0.06c1.16,0,2.3,0.45,3.2,1.27c0.84-0.76,1.96-1.22,3.19-1.22
		c2.62,0,4.76,2.14,4.76,4.76v3.69l7.05-7.05c0.89-0.89,2.11-1.4,3.37-1.4c0.63,0,1.23,0.12,1.82,0.36c0.5,0.2,0.95,0.48,1.33,0.84
		c0.87-0.78,1.98-1.2,3.16-1.2c1.27,0,2.46,0.48,3.37,1.39l4.25,4.23l4.25-4.23c0.9-0.89,2.11-1.39,3.37-1.39
		c1.28,0,2.48,0.5,3.37,1.41c1.86,1.86,1.85,4.89-0.01,6.75l-4.23,4.21l4.21,4.2c1.86,1.86,1.87,4.88,0.01,6.75
		c-0.89,0.9-2.11,1.41-3.37,1.41c-1.28,0-2.47-0.5-3.37-1.4l-4.23-4.22l-4.22,4.2c-0.89,0.89-2.09,1.39-3.37,1.39
		c-1.15,0-2.27-0.43-3.14-1.18c-0.84,0.76-1.96,1.23-3.2,1.23c-2.62,0-4.76-2.14-4.76-4.76v-3.69l-7.05,7.05
		C1284.25,113.49,1283.06,113.99,1281.77,113.99L1281.77,113.99z M1301.75,104l2.41-2.4l-2.41-2.4V104z"/>
	<path class="st38" d="M1245.96,111.18c-0.52,0-1.03-0.2-1.41-0.58l-11.79-11.81v10.39c0,1.1-0.89,1.98-1.98,1.98
		c-1.09,0-1.98-0.89-1.98-1.98V93.97c0-0.8,0.48-1.53,1.23-1.84c0.75-0.31,1.6-0.14,2.17,0.43l11.78,11.79V93.97
		c0-1.1,0.89-1.98,1.98-1.98c1.1,0,1.98,0.89,1.98,1.98v15.2C1247.96,110.27,1247.06,111.18,1245.96,111.18 M1255.2,92.01
		l-0.55,1.03l-4.23,7.69l-0.55,0.97l0.55,0.97l4.23,7.45l0.57,1.01h11.09l0.55-1.12l3.16-6.38l1.42-2.89h-3.21l-8.09,0.03
		c-1.06-0.02-2.03,0.95-2.03,1.98c0,1.06,0.97,2.01,2.03,1.98l4.88-0.03l-1.19,2.41h-6.28l-3.12-5.47l3.14-5.68h6.68l1.55,3.2h4.01
		l-2.52-6.06l-0.55-1.12h-11.55 M1275.39,91.98c-1.05,0.01-1.98,0.97-1.97,2.02v5.2h3.99v-5.2
		C1277.42,92.94,1276.45,91.95,1275.39,91.98 M1281.78,111.21c-1.1,0-1.98-0.89-1.98-1.98V94.02c0-1.1,0.89-1.98,1.98-1.98
		c1.1,0,1.98,0.89,1.98,1.98v10.39l11.79-11.79c0.57-0.57,1.42-0.74,2.17-0.43c0.75,0.31,1.23,1.04,1.23,1.84v15.2
		c0,1.1-0.89,1.98-1.98,1.98c-1.1,0-1.98-0.89-1.98-1.98V98.82l-11.81,11.81C1282.82,111,1282.31,111.21,1281.78,111.21
		 M1313.75,101.6l6.19-6.18c0.78-0.78,0.78-2.04,0.01-2.82c-0.78-0.78-2.04-0.78-2.82-0.01l-6.21,6.19l-6.21-6.19
		c-0.78-0.78-2.04-0.78-2.82,0.01c-0.78,0.78-0.78,2.04,0,2.82l6.19,6.18l-6.18,6.16c-0.78,0.78-0.78,2.04-0.01,2.82
		c0.37,0.37,0.88,0.6,1.41,0.58c0.51,0,1.01-0.2,1.41-0.58l6.19-6.17l6.19,6.17c0.37,0.37,0.88,0.58,1.41,0.58
		c0.51,0,1.03-0.2,1.41-0.58c0.78-0.78,0.78-2.04-0.01-2.82L1313.75,101.6z M1275.39,111.16c-1.05-0.01-1.98-0.97-1.97-2.02v-8.34
		h3.99v8.34C1277.42,110.2,1276.45,111.17,1275.39,111.16"/>
	<path class="st6" d="M1293.69,91.92c-2.06-0.02-4-0.83-5.45-2.28l-24.97-24.95v19.44c0,4.29-3.49,7.79-7.79,7.79
		s-7.79-3.49-7.79-7.79V45.88c0-3.16,1.88-5.99,4.81-7.2c0.95-0.4,1.95-0.6,2.98-0.6c2.08,0,4.05,0.82,5.51,2.28l24.98,24.95V45.88
		c0-4.3,3.49-7.79,7.78-7.79s7.79,3.49,7.79,7.79v38.26c0,4.29-3.49,7.79-7.79,7.79h-0.06V91.92z"/>
	<path class="st38" d="M1293.74,89.14c-1.3,0-2.59-0.51-3.55-1.47l-29.68-29.69v26.15c0,2.78-2.25,5.02-5.02,5.02
		c-2.77,0-5.02-2.25-5.02-5.02V45.88c0-2.04,1.22-3.86,3.1-4.64c1.87-0.78,4.03-0.35,5.47,1.09l29.68,29.69V45.88
		c0-2.78,2.25-5.02,5.02-5.02c2.78,0,5.02,2.25,5.02,5.02v38.26C1298.76,86.91,1296.52,89.14,1293.74,89.14"/>
</g>
<g>
	<path id="XMLID_16_" class="st39" d="M685.77,170.67c0,0-3.94,2.27,2.8,3.04c8.16,0.93,12.34,0.81,21.31-0.89
		c0,0,2.35,1.5,5.68,2.76C695.39,184.22,669.95,175.09,685.77,170.67L685.77,170.67z"/>
	<path id="XMLID_15_" class="st39" d="M683.3,159.39c0,0-4.42,3.29,2.31,3.98c8.73,0.89,15.58,0.97,27.52-1.34
		c0,0,1.66,1.66,4.22,2.6C693.04,171.72,665.89,165.15,683.3,159.39L683.3,159.39z"/>
	<path id="XMLID_14_" class="st40" d="M704.08,140.23c4.95,5.72-1.3,10.88-1.3,10.88s12.62-6.49,6.82-14.65
		c-5.4-7.59-9.58-11.36,12.91-24.39C722.5,112.02,687.24,120.83,704.08,140.23L704.08,140.23z"/>
	<path id="XMLID_13_" class="st39" d="M730.74,178.99c0,0,2.92,2.39-3.21,4.26c-11.65,3.53-48.46,4.59-58.64,0.12
		c-3.65-1.58,3.21-3.81,5.4-4.3c2.27-0.49,3.53-0.41,3.53-0.41c-4.1-2.88-26.42,5.64-11.32,8.12
		C707.57,193.48,741.42,183.82,730.74,178.99L730.74,178.99z"/>
	<path id="XMLID_12_" class="st39" d="M687.68,147.7c0,0-18.71,4.46-6.62,6.05c5.11,0.69,15.26,0.53,24.76-0.28
		c7.75-0.65,15.54-2.03,15.54-2.03s-2.72,1.18-4.71,2.52c-18.99,4.99-55.72,2.68-45.17-2.44
		C680.42,147.21,687.68,147.7,687.68,147.7L687.68,147.7z"/>
	<path id="XMLID_11_" class="st39" d="M721.25,166.45c19.32-10.02,10.39-19.68,4.14-18.38c-1.54,0.32-2.19,0.61-2.19,0.61
		s0.57-0.89,1.66-1.26c12.34-4.34,21.83,12.78-3.98,19.56C720.88,166.97,721.16,166.69,721.25,166.45L721.25,166.45z"/>
	<path id="XMLID_10_" class="st40" d="M709.6,91c0,0,10.71,10.71-10.15,27.15c-16.72,13.19-3.81,20.74,0,29.34
		c-9.78-8.81-16.92-16.56-12.13-23.78C694.38,113.16,713.9,108,709.6,91L709.6,91z"/>
	<path id="XMLID_9_" class="st39" d="M689.55,193.68c18.55,1.18,47.04-0.65,47.73-9.46c0,0-1.3,3.33-15.34,5.97
		c-15.83,2.96-35.35,2.64-46.96,0.73C675.02,190.92,677.37,192.91,689.55,193.68L689.55,193.68z"/>
</g>
<g>
	<path class="st41" d="M1233,449.16c0,4.15-3.37,7.52-7.52,7.52H1105.1c-4.15,0-7.52-3.37-7.52-7.52v-42.98
		c0-4.15,3.37-7.52,7.52-7.52h120.37c4.15,0,7.52,3.37,7.52,7.52V449.16z"/>
	<g>
		<g>
			<path class="st6" d="M1120.94,407.77h6.41v29.68c-3.29,0.62-5.71,0.87-8.33,0.87c-7.83,0-11.91-3.54-11.91-10.33
				c0-6.54,4.33-10.79,11.04-10.79c1.04,0,1.83,0.08,2.79,0.33L1120.94,407.77L1120.94,407.77z M1120.94,422.71
				c-0.75-0.25-1.37-0.33-2.17-0.33c-3.25,0-5.12,2-5.12,5.5c0,3.42,1.79,5.29,5.08,5.29c0.71,0,1.29-0.04,2.21-0.17
				C1120.94,433,1120.94,422.71,1120.94,422.71z"/>
			<path class="st6" d="M1137.55,417.67v14.87c0,5.12-0.37,7.58-1.5,9.7c-1.04,2.04-2.42,3.33-5.25,4.75l-5.95-2.83
				c2.83-1.33,4.21-2.5,5.08-4.29c0.92-1.83,1.21-3.96,1.21-9.54v-12.66H1137.55z M1131.14,407.81h6.41v6.58h-6.41V407.81z"/>
			<path class="st6" d="M1141.43,419.13c2.83-1.33,5.54-1.92,8.5-1.92c3.29,0,5.45,0.87,6.41,2.58c0.54,0.96,0.71,2.21,0.71,4.87
				v13.03c-2.87,0.42-6.5,0.71-9.16,0.71c-5.37,0-7.79-1.87-7.79-6.04c0-4.5,3.21-6.58,11.08-7.25v-1.42c0-1.17-0.58-1.58-2.21-1.58
				c-2.37,0-5.04,0.67-7.54,1.96L1141.43,419.13L1141.43,419.13z M1151.46,429.33c-4.25,0.42-5.62,1.08-5.62,2.75
				c0,1.25,0.79,1.83,2.54,1.83c0.96,0,1.83-0.08,3.08-0.29V429.33L1151.46,429.33z"/>
			<path class="st6" d="M1160.17,418.67c3.79-1,6.91-1.46,10.08-1.46c3.29,0,5.66,0.75,7.08,2.21c1.33,1.37,1.75,2.87,1.75,6.08
				v12.58h-6.41v-12.33c0-2.46-0.83-3.37-3.12-3.37c-0.87,0-1.67,0.08-2.96,0.46v15.24h-6.41L1160.17,418.67L1160.17,418.67z"/>
			<path class="st6" d="M1181.56,441.58c2.25,1.17,4.5,1.71,6.87,1.71c4.21,0,6-1.71,6-5.79c0-0.04,0-0.08,0-0.13
				c-1.25,0.62-2.5,0.87-4.16,0.87c-5.62,0-9.2-3.71-9.2-9.58c0-7.29,5.29-11.41,14.66-11.41c2.75,0,5.29,0.29,8.37,0.92l-2.2,4.63
				c-1.71-0.33-0.14-0.04-1.43-0.17v0.67l0.08,2.71l0.04,3.5c0.04,0.87,0.04,1.75,0.08,2.62c0,0.79,0,1.17,0,1.75
				c0,5.5-0.46,8.08-1.83,10.2c-2,3.12-5.46,4.66-10.37,4.66c-2.5,0-4.66-0.38-6.91-1.25L1181.56,441.58L1181.56,441.58z
				 M1194.31,422.42c-0.08,0-0.17,0-0.21,0h-0.46c-1.25-0.04-2.71,0.29-3.71,0.92c-1.54,0.87-2.33,2.46-2.33,4.71
				c0,3.21,1.58,5.04,4.41,5.04c0.87,0,1.58-0.17,2.42-0.42v-0.46v-1.75c0-0.75-0.04-1.58-0.04-2.46l-0.04-2.96l-0.04-2.12
				L1194.31,422.42L1194.31,422.42z"/>
			<path class="st6" d="M1214.05,417.13c6.41,0,10.33,4.04,10.33,10.58c0,6.7-4.08,10.91-10.58,10.91
				c-6.41,0-10.37-4.04-10.37-10.54C1203.43,421.34,1207.51,417.13,1214.05,417.13z M1213.92,433.46c2.46,0,3.91-2.04,3.91-5.58
				c0-3.5-1.42-5.58-3.87-5.58c-2.54,0-4,2.04-4,5.58C1209.97,431.42,1211.42,433.46,1213.92,433.46z"/>
		</g>
	</g>
</g>
<polygon class="st42" points="1354,300.84 1348,297.37 1348,304.3 "/>
<polygon class="st43" points="1350,370.66 1345.23,367.91 1345.23,373.42 "/>
<polygon class="st44" points="1352,212.66 1347.23,209.91 1347.23,215.42 "/>
<polygon class="st45" points="1353,140.66 1348.23,137.91 1348.23,143.42 "/>
<polygon class="st46" points="1346,87.93 1344.23,86.91 1344.23,88.95 "/>
<polygon class="st47" points="1349.86,156.36 1348.09,155.34 1348.09,157.38 "/>
<polygon class="st48" points="1348.38,233.91 1346.61,232.89 1346.61,234.93 "/>
</svg>
